# xmcd
#
# Track frame offsets: 
#        150
#        12135
#        30198
#        47708
#        72095
#        90128
#        96635
#        119868
#        133295
#        148955
#        170793
#        188440
#        200368
#        220650
#        232080
#        252110
#        269258
#
# Disc length: 3745 seconds
#
# Revision: 0
# Processed by: cddbd v1.5.2PL0 Copyright (c) Steve Scherf et al.
# Submitted via: ExactAudioCopy v1.1
#
DISCID=f60e9f11
DTITLE=Lightnin’ Hopkins - Bring Me My Shotgun
DYEAR=2006
DGENRE=Blues
TTITLE0=Lonesome Dog
TTITLE1=Shake That Thing
TTITLE2=I'm Leaving You Now
TTITLE3=Walk A Long Time
TTITLE4=Bring Me My Shotgun
TTITLE5=Just Pickin'
TTITLE6=Last Night
TTITLE7=Mojo Hand
TTITLE8=Coffee For Mama
TTITLE9=Awful Dreams
TTITLE10=Black Mare Trot
TTITLE11=Have You Ever Loved A Woman
TTITLE12=Glory Be
TTITLE13=Sometimes She Will
TTITLE14=Shine On Moon
TTITLE15=Santa
TTITLE16=Just Sitting Down Thinking
EXTD=
EXTT0=
EXTT1=
EXTT2=
EXTT3=
EXTT4=
EXTT5=
EXTT6=
EXTT7=
EXTT8=
EXTT9=
EXTT10=
EXTT11=
EXTT12=
EXTT13=
EXTT14=
EXTT15=
EXTT16=
PLAYORDER=
